<svg width="300" height="300" viewBox="0 0 300 300" fill="none" xmlns="http://www.w3.org/2000/svg">
<path d="M95.4829 142.46V145.076H99.0349V159.26H102.155V142.46H95.4829Z" fill="#014631"/>
<path d="M109.736 156.62L114.224 152.348C116.552 150.164 117.008 148.676 117.008 147.044C117.008 144.068 114.656 142.22 111.008 142.22C108.248 142.22 105.92 143.252 104.624 145.004L106.808 146.684C107.744 145.484 109.112 144.932 110.744 144.932C112.808 144.932 113.864 145.82 113.864 147.356C113.864 148.292 113.576 149.276 111.944 150.836L105.272 157.172V159.26H117.656V156.62H109.736Z" fill="#014631"/>
<path d="M126.394 159.5C130.402 159.5 133.426 156.38 133.426 150.86C133.426 145.34 130.402 142.22 126.394 142.22C122.41 142.22 119.386 145.34 119.386 150.86C119.386 156.38 122.41 159.5 126.394 159.5ZM126.394 156.788C124.114 156.788 122.53 154.916 122.53 150.86C122.53 146.804 124.114 144.932 126.394 144.932C128.698 144.932 130.282 146.804 130.282 150.86C130.282 154.916 128.698 156.788 126.394 156.788Z" fill="#014631"/>
<path d="M142.542 159.5C146.55 159.5 149.574 156.38 149.574 150.86C149.574 145.34 146.55 142.22 142.542 142.22C138.558 142.22 135.534 145.34 135.534 150.86C135.534 156.38 138.558 159.5 142.542 159.5ZM142.542 156.788C140.262 156.788 138.678 154.916 138.678 150.86C138.678 146.804 140.262 144.932 142.542 144.932C144.846 144.932 146.43 146.804 146.43 150.86C146.43 154.916 144.846 156.788 142.542 156.788Z" fill="#014631"/>
<path d="M165.324 159.5C169.332 159.5 172.356 156.38 172.356 150.86C172.356 145.34 169.332 142.22 165.324 142.22C161.34 142.22 158.316 145.34 158.316 150.86C158.316 156.38 161.34 159.5 165.324 159.5ZM165.324 156.788C163.044 156.788 161.46 154.916 161.46 150.86C161.46 146.804 163.044 144.932 165.324 144.932C167.628 144.932 169.212 146.804 169.212 150.86C169.212 154.916 167.628 156.788 165.324 156.788Z" fill="#014631"/>
<path d="M181.472 159.5C185.48 159.5 188.504 156.38 188.504 150.86C188.504 145.34 185.48 142.22 181.472 142.22C177.488 142.22 174.464 145.34 174.464 150.86C174.464 156.38 177.488 159.5 181.472 159.5ZM181.472 156.788C179.192 156.788 177.608 154.916 177.608 150.86C177.608 146.804 179.192 144.932 181.472 144.932C183.776 144.932 185.36 146.804 185.36 150.86C185.36 154.916 183.776 156.788 181.472 156.788Z" fill="#014631"/>
<path d="M197.621 159.5C201.629 159.5 204.653 156.38 204.653 150.86C204.653 145.34 201.629 142.22 197.621 142.22C193.637 142.22 190.613 145.34 190.613 150.86C190.613 156.38 193.637 159.5 197.621 159.5ZM197.621 156.788C195.341 156.788 193.757 154.916 193.757 150.86C193.757 146.804 195.341 144.932 197.621 144.932C199.925 144.932 201.509 146.804 201.509 150.86C201.509 154.916 199.925 156.788 197.621 156.788Z" fill="#014631"/>
<path d="M161.942 9.94023L164.186 7.80423C165.35 6.71223 165.578 5.96823 165.578 5.15223C165.578 3.66423 164.402 2.74023 162.578 2.74023C161.198 2.74023 160.034 3.25623 159.386 4.13223L160.478 4.97223C160.946 4.37223 161.63 4.09623 162.446 4.09623C163.478 4.09623 164.006 4.54023 164.006 5.30823C164.006 5.77623 163.862 6.26823 163.046 7.04823L159.71 10.2162V11.2602H165.902V9.94023H161.942Z" fill="#014631"/>
<path d="M170.271 11.3802C172.275 11.3802 173.787 9.82023 173.787 7.06023C173.787 4.30023 172.275 2.74023 170.271 2.74023C168.279 2.74023 166.767 4.30023 166.767 7.06023C166.767 9.82023 168.279 11.3802 170.271 11.3802ZM170.271 10.0242C169.131 10.0242 168.339 9.08823 168.339 7.06023C168.339 5.03223 169.131 4.09623 170.271 4.09623C171.423 4.09623 172.215 5.03223 172.215 7.06023C172.215 9.08823 171.423 10.0242 170.271 10.0242Z" fill="#014631"/>
<path d="M176.907 9.94023L179.151 7.80423C180.315 6.71223 180.543 5.96823 180.543 5.15223C180.543 3.66423 179.367 2.74023 177.543 2.74023C176.163 2.74023 174.999 3.25623 174.351 4.13223L175.443 4.97223C175.911 4.37223 176.595 4.09623 177.411 4.09623C178.443 4.09623 178.971 4.54023 178.971 5.30823C178.971 5.77623 178.827 6.26823 178.011 7.04823L174.675 10.2162V11.2602H180.867V9.94023H176.907Z" fill="#014631"/>
<path d="M181.335 2.86023V4.16823H183.111V11.2602H184.671V2.86023H181.335Z" fill="#014631"/>
<path d="M157.71 26.2597V25.2157L161.046 22.0477C161.326 21.7837 161.534 21.5517 161.67 21.3517C161.806 21.1517 161.894 20.9677 161.934 20.7997C161.982 20.6237 162.006 20.4597 162.006 20.3077C162.006 19.9237 161.874 19.6277 161.61 19.4197C161.346 19.2037 160.958 19.0957 160.446 19.0957C160.038 19.0957 159.666 19.1677 159.33 19.3117C159.002 19.4557 158.718 19.6757 158.478 19.9717L157.386 19.1317C157.714 18.6917 158.154 18.3517 158.706 18.1117C159.266 17.8637 159.89 17.7397 160.578 17.7397C161.186 17.7397 161.714 17.8397 162.162 18.0397C162.618 18.2317 162.966 18.5077 163.206 18.8677C163.454 19.2277 163.578 19.6557 163.578 20.1517C163.578 20.4237 163.542 20.6957 163.47 20.9677C163.398 21.2317 163.262 21.5117 163.062 21.8077C162.862 22.1037 162.57 22.4357 162.186 22.8037L159.318 25.5277L158.994 24.9397H163.902V26.2597H157.71Z" fill="#014631"/>
<path d="M168.307 26.3797C167.643 26.3797 167.043 26.2117 166.507 25.8757C165.979 25.5397 165.563 25.0517 165.259 24.4117C164.955 23.7637 164.803 22.9797 164.803 22.0597C164.803 21.1397 164.955 20.3597 165.259 19.7197C165.563 19.0717 165.979 18.5797 166.507 18.2437C167.043 17.9077 167.643 17.7397 168.307 17.7397C168.979 17.7397 169.579 17.9077 170.107 18.2437C170.635 18.5797 171.051 19.0717 171.355 19.7197C171.667 20.3597 171.823 21.1397 171.823 22.0597C171.823 22.9797 171.667 23.7637 171.355 24.4117C171.051 25.0517 170.635 25.5397 170.107 25.8757C169.579 26.2117 168.979 26.3797 168.307 26.3797ZM168.307 25.0237C168.699 25.0237 169.039 24.9197 169.327 24.7117C169.615 24.4957 169.839 24.1677 169.999 23.7277C170.167 23.2877 170.251 22.7317 170.251 22.0597C170.251 21.3797 170.167 20.8237 169.999 20.3917C169.839 19.9517 169.615 19.6277 169.327 19.4197C169.039 19.2037 168.699 19.0957 168.307 19.0957C167.931 19.0957 167.595 19.2037 167.299 19.4197C167.011 19.6277 166.783 19.9517 166.615 20.3917C166.455 20.8237 166.375 21.3797 166.375 22.0597C166.375 22.7317 166.455 23.2877 166.615 23.7277C166.783 24.1677 167.011 24.4957 167.299 24.7117C167.595 24.9197 167.931 25.0237 168.307 25.0237Z" fill="#014631"/>
<path d="M172.757 26.2597V25.2157L176.093 22.0477C176.373 21.7837 176.581 21.5517 176.717 21.3517C176.853 21.1517 176.941 20.9677 176.981 20.7997C177.029 20.6237 177.053 20.4597 177.053 20.3077C177.053 19.9237 176.921 19.6277 176.657 19.4197C176.393 19.2037 176.005 19.0957 175.493 19.0957C175.085 19.0957 174.713 19.1677 174.377 19.3117C174.049 19.4557 173.765 19.6757 173.525 19.9717L172.433 19.1317C172.761 18.6917 173.201 18.3517 173.753 18.1117C174.313 17.8637 174.937 17.7397 175.625 17.7397C176.233 17.7397 176.761 17.8397 177.209 18.0397C177.665 18.2317 178.013 18.5077 178.253 18.8677C178.501 19.2277 178.625 19.6557 178.625 20.1517C178.625 20.4237 178.589 20.6957 178.517 20.9677C178.445 21.2317 178.309 21.5117 178.109 21.8077C177.909 22.1037 177.617 22.4357 177.233 22.8037L174.365 25.5277L174.041 24.9397H178.949V26.2597H172.757Z" fill="#014631"/>
<path d="M183.353 26.3797C182.689 26.3797 182.089 26.2117 181.553 25.8757C181.025 25.5397 180.609 25.0517 180.305 24.4117C180.001 23.7637 179.849 22.9797 179.849 22.0597C179.849 21.1397 180.001 20.3597 180.305 19.7197C180.609 19.0717 181.025 18.5797 181.553 18.2437C182.089 17.9077 182.689 17.7397 183.353 17.7397C184.025 17.7397 184.625 17.9077 185.153 18.2437C185.681 18.5797 186.097 19.0717 186.401 19.7197C186.713 20.3597 186.869 21.1397 186.869 22.0597C186.869 22.9797 186.713 23.7637 186.401 24.4117C186.097 25.0517 185.681 25.5397 185.153 25.8757C184.625 26.2117 184.025 26.3797 183.353 26.3797ZM183.353 25.0237C183.745 25.0237 184.085 24.9197 184.373 24.7117C184.661 24.4957 184.885 24.1677 185.045 23.7277C185.213 23.2877 185.297 22.7317 185.297 22.0597C185.297 21.3797 185.213 20.8237 185.045 20.3917C184.885 19.9517 184.661 19.6277 184.373 19.4197C184.085 19.2037 183.745 19.0957 183.353 19.0957C182.977 19.0957 182.641 19.2037 182.345 19.4197C182.057 19.6277 181.829 19.9517 181.661 20.3917C181.501 20.8237 181.421 21.3797 181.421 22.0597C181.421 22.7317 181.501 23.2877 181.661 23.7277C181.829 24.1677 182.057 24.4957 182.345 24.7117C182.641 24.9197 182.977 25.0237 183.353 25.0237Z" fill="#014631"/>
<path d="M160.71 43.2597V42.2157L164.046 39.0477C164.326 38.7837 164.534 38.5517 164.67 38.3517C164.806 38.1517 164.894 37.9677 164.934 37.7997C164.982 37.6237 165.006 37.4597 165.006 37.3077C165.006 36.9237 164.874 36.6277 164.61 36.4197C164.346 36.2037 163.958 36.0957 163.446 36.0957C163.038 36.0957 162.666 36.1677 162.33 36.3117C162.002 36.4557 161.718 36.6757 161.478 36.9717L160.386 36.1317C160.714 35.6917 161.154 35.3517 161.706 35.1117C162.266 34.8637 162.89 34.7397 163.578 34.7397C164.186 34.7397 164.714 34.8397 165.162 35.0397C165.618 35.2317 165.966 35.5077 166.206 35.8677C166.454 36.2277 166.578 36.6557 166.578 37.1517C166.578 37.4237 166.542 37.6957 166.47 37.9677C166.398 38.2317 166.262 38.5117 166.062 38.8077C165.862 39.1037 165.57 39.4357 165.186 39.8037L162.318 42.5277L161.994 41.9397H166.902V43.2597H160.71Z" fill="#014631"/>
<path d="M171.307 43.3797C170.643 43.3797 170.043 43.2117 169.507 42.8757C168.979 42.5397 168.563 42.0517 168.259 41.4117C167.955 40.7637 167.803 39.9797 167.803 39.0597C167.803 38.1397 167.955 37.3597 168.259 36.7197C168.563 36.0717 168.979 35.5797 169.507 35.2437C170.043 34.9077 170.643 34.7397 171.307 34.7397C171.979 34.7397 172.579 34.9077 173.107 35.2437C173.635 35.5797 174.051 36.0717 174.355 36.7197C174.667 37.3597 174.823 38.1397 174.823 39.0597C174.823 39.9797 174.667 40.7637 174.355 41.4117C174.051 42.0517 173.635 42.5397 173.107 42.8757C172.579 43.2117 171.979 43.3797 171.307 43.3797ZM171.307 42.0237C171.699 42.0237 172.039 41.9197 172.327 41.7117C172.615 41.4957 172.839 41.1677 172.999 40.7277C173.167 40.2877 173.251 39.7317 173.251 39.0597C173.251 38.3797 173.167 37.8237 172.999 37.3917C172.839 36.9517 172.615 36.6277 172.327 36.4197C172.039 36.2037 171.699 36.0957 171.307 36.0957C170.931 36.0957 170.595 36.2037 170.299 36.4197C170.011 36.6277 169.783 36.9517 169.615 37.3917C169.455 37.8237 169.375 38.3797 169.375 39.0597C169.375 39.7317 169.455 40.2877 169.615 40.7277C169.783 41.1677 170.011 41.4957 170.299 41.7117C170.595 41.9197 170.931 42.0237 171.307 42.0237Z" fill="#014631"/>
<path d="M177.209 43.2597V35.4597L177.893 36.1677H175.433V34.8597H178.769V43.2597H177.209Z" fill="#014631"/>
<path d="M183.267 34.7397C184.035 34.7397 184.687 34.9037 185.223 35.2317C185.767 35.5517 186.183 36.0197 186.471 36.6357C186.759 37.2517 186.903 38.0117 186.903 38.9157C186.903 39.8757 186.727 40.6877 186.375 41.3517C186.031 42.0157 185.551 42.5197 184.935 42.8637C184.319 43.2077 183.603 43.3797 182.787 43.3797C182.363 43.3797 181.959 43.3357 181.575 43.2477C181.191 43.1597 180.859 43.0237 180.579 42.8397L181.155 41.6637C181.387 41.8157 181.639 41.9237 181.911 41.9877C182.183 42.0437 182.463 42.0717 182.751 42.0717C183.543 42.0717 184.171 41.8277 184.635 41.3397C185.099 40.8517 185.331 40.1317 185.331 39.1797C185.331 39.0277 185.327 38.8517 185.319 38.6517C185.311 38.4437 185.283 38.2357 185.235 38.0277L185.715 38.5557C185.579 38.8837 185.383 39.1597 185.127 39.3837C184.871 39.5997 184.571 39.7637 184.227 39.8757C183.883 39.9877 183.503 40.0437 183.087 40.0437C182.543 40.0437 182.051 39.9397 181.611 39.7317C181.179 39.5157 180.835 39.2157 180.579 38.8317C180.323 38.4397 180.195 37.9837 180.195 37.4637C180.195 36.9037 180.331 36.4237 180.603 36.0237C180.875 35.6157 181.243 35.2997 181.707 35.0757C182.179 34.8517 182.699 34.7397 183.267 34.7397ZM183.351 35.9637C183.031 35.9637 182.747 36.0237 182.499 36.1437C182.251 36.2557 182.055 36.4197 181.911 36.6357C181.775 36.8437 181.707 37.0957 181.707 37.3917C181.707 37.8317 181.859 38.1797 182.163 38.4357C182.467 38.6917 182.875 38.8197 183.387 38.8197C183.723 38.8197 184.019 38.7597 184.275 38.6397C184.531 38.5117 184.731 38.3397 184.875 38.1237C185.019 37.8997 185.091 37.6517 185.091 37.3797C185.091 37.1157 185.023 36.8797 184.887 36.6717C184.751 36.4557 184.555 36.2837 184.299 36.1557C184.043 36.0277 183.727 35.9637 183.351 35.9637Z" fill="#014631"/>
<path d="M159.71 61.2597V60.2157L163.046 57.0477C163.326 56.7837 163.534 56.5517 163.67 56.3517C163.806 56.1517 163.894 55.9677 163.934 55.7997C163.982 55.6237 164.006 55.4597 164.006 55.3077C164.006 54.9237 163.874 54.6277 163.61 54.4197C163.346 54.2037 162.958 54.0957 162.446 54.0957C162.038 54.0957 161.666 54.1677 161.33 54.3117C161.002 54.4557 160.718 54.6757 160.478 54.9717L159.386 54.1317C159.714 53.6917 160.154 53.3517 160.706 53.1117C161.266 52.8637 161.89 52.7397 162.578 52.7397C163.186 52.7397 163.714 52.8397 164.162 53.0397C164.618 53.2317 164.966 53.5077 165.206 53.8677C165.454 54.2277 165.578 54.6557 165.578 55.1517C165.578 55.4237 165.542 55.6957 165.47 55.9677C165.398 56.2317 165.262 56.5117 165.062 56.8077C164.862 57.1037 164.57 57.4357 164.186 57.8037L161.318 60.5277L160.994 59.9397H165.902V61.2597H159.71Z" fill="#014631"/>
<path d="M170.307 61.3797C169.643 61.3797 169.043 61.2117 168.507 60.8757C167.979 60.5397 167.563 60.0517 167.259 59.4117C166.955 58.7637 166.803 57.9797 166.803 57.0597C166.803 56.1397 166.955 55.3597 167.259 54.7197C167.563 54.0717 167.979 53.5797 168.507 53.2437C169.043 52.9077 169.643 52.7397 170.307 52.7397C170.979 52.7397 171.579 52.9077 172.107 53.2437C172.635 53.5797 173.051 54.0717 173.355 54.7197C173.667 55.3597 173.823 56.1397 173.823 57.0597C173.823 57.9797 173.667 58.7637 173.355 59.4117C173.051 60.0517 172.635 60.5397 172.107 60.8757C171.579 61.2117 170.979 61.3797 170.307 61.3797ZM170.307 60.0237C170.699 60.0237 171.039 59.9197 171.327 59.7117C171.615 59.4957 171.839 59.1677 171.999 58.7277C172.167 58.2877 172.251 57.7317 172.251 57.0597C172.251 56.3797 172.167 55.8237 171.999 55.3917C171.839 54.9517 171.615 54.6277 171.327 54.4197C171.039 54.2037 170.699 54.0957 170.307 54.0957C169.931 54.0957 169.595 54.2037 169.299 54.4197C169.011 54.6277 168.783 54.9517 168.615 55.3917C168.455 55.8237 168.375 56.3797 168.375 57.0597C168.375 57.7317 168.455 58.2877 168.615 58.7277C168.783 59.1677 169.011 59.4957 169.299 59.7117C169.595 59.9197 169.931 60.0237 170.307 60.0237Z" fill="#014631"/>
<path d="M176.209 61.2597V53.4597L176.893 54.1677H174.433V52.8597H177.769V61.2597H176.209Z" fill="#014631"/>
<path d="M182.807 61.3797C182.111 61.3797 181.507 61.2757 180.995 61.0677C180.483 60.8597 180.087 60.5677 179.807 60.1917C179.527 59.8077 179.387 59.3597 179.387 58.8477C179.387 58.3357 179.523 57.9037 179.795 57.5517C180.067 57.1997 180.459 56.9317 180.971 56.7477C181.483 56.5637 182.095 56.4717 182.807 56.4717C183.519 56.4717 184.131 56.5637 184.643 56.7477C185.163 56.9317 185.559 57.2037 185.831 57.5637C186.111 57.9157 186.251 58.3437 186.251 58.8477C186.251 59.3597 186.107 59.8077 185.819 60.1917C185.539 60.5677 185.139 60.8597 184.619 61.0677C184.107 61.2757 183.503 61.3797 182.807 61.3797ZM182.807 60.1557C183.383 60.1557 183.839 60.0357 184.175 59.7957C184.511 59.5557 184.679 59.2237 184.679 58.7997C184.679 58.3837 184.511 58.0557 184.175 57.8157C183.839 57.5757 183.383 57.4557 182.807 57.4557C182.231 57.4557 181.779 57.5757 181.451 57.8157C181.123 58.0557 180.959 58.3837 180.959 58.7997C180.959 59.2237 181.123 59.5557 181.451 59.7957C181.779 60.0357 182.231 60.1557 182.807 60.1557ZM182.807 57.2877C182.159 57.2877 181.603 57.2037 181.139 57.0357C180.675 56.8597 180.315 56.6077 180.059 56.2797C179.811 55.9437 179.687 55.5437 179.687 55.0797C179.687 54.5997 179.815 54.1877 180.071 53.8437C180.335 53.4917 180.703 53.2197 181.175 53.0277C181.647 52.8357 182.191 52.7397 182.807 52.7397C183.431 52.7397 183.979 52.8357 184.451 53.0277C184.923 53.2197 185.291 53.4917 185.555 53.8437C185.819 54.1877 185.951 54.5997 185.951 55.0797C185.951 55.5437 185.823 55.9437 185.567 56.2797C185.319 56.6077 184.959 56.8597 184.487 57.0357C184.015 57.2037 183.455 57.2877 182.807 57.2877ZM182.807 56.3277C183.303 56.3277 183.695 56.2237 183.983 56.0157C184.271 55.7997 184.415 55.5117 184.415 55.1517C184.415 54.7757 184.267 54.4837 183.971 54.2757C183.675 54.0677 183.287 53.9637 182.807 53.9637C182.327 53.9637 181.943 54.0677 181.655 54.2757C181.367 54.4837 181.223 54.7757 181.223 55.1517C181.223 55.5117 181.363 55.7997 181.643 56.0157C181.931 56.2237 182.319 56.3277 182.807 56.3277Z" fill="#014631"/>
<path d="M160.71 79.2597V78.2157L164.046 75.0477C164.326 74.7837 164.534 74.5517 164.67 74.3517C164.806 74.1517 164.894 73.9677 164.934 73.7997C164.982 73.6237 165.006 73.4597 165.006 73.3077C165.006 72.9237 164.874 72.6277 164.61 72.4197C164.346 72.2037 163.958 72.0957 163.446 72.0957C163.038 72.0957 162.666 72.1677 162.33 72.3117C162.002 72.4557 161.718 72.6757 161.478 72.9717L160.386 72.1317C160.714 71.6917 161.154 71.3517 161.706 71.1117C162.266 70.8637 162.89 70.7397 163.578 70.7397C164.186 70.7397 164.714 70.8397 165.162 71.0397C165.618 71.2317 165.966 71.5077 166.206 71.8677C166.454 72.2277 166.578 72.6557 166.578 73.1517C166.578 73.4237 166.542 73.6957 166.47 73.9677C166.398 74.2317 166.262 74.5117 166.062 74.8077C165.862 75.1037 165.57 75.4357 165.186 75.8037L162.318 78.5277L161.994 77.9397H166.902V79.2597H160.71Z" fill="#014631"/>
<path d="M171.307 79.3797C170.643 79.3797 170.043 79.2117 169.507 78.8757C168.979 78.5397 168.563 78.0517 168.259 77.4117C167.955 76.7637 167.803 75.9797 167.803 75.0597C167.803 74.1397 167.955 73.3597 168.259 72.7197C168.563 72.0717 168.979 71.5797 169.507 71.2437C170.043 70.9077 170.643 70.7397 171.307 70.7397C171.979 70.7397 172.579 70.9077 173.107 71.2437C173.635 71.5797 174.051 72.0717 174.355 72.7197C174.667 73.3597 174.823 74.1397 174.823 75.0597C174.823 75.9797 174.667 76.7637 174.355 77.4117C174.051 78.0517 173.635 78.5397 173.107 78.8757C172.579 79.2117 171.979 79.3797 171.307 79.3797ZM171.307 78.0237C171.699 78.0237 172.039 77.9197 172.327 77.7117C172.615 77.4957 172.839 77.1677 172.999 76.7277C173.167 76.2877 173.251 75.7317 173.251 75.0597C173.251 74.3797 173.167 73.8237 172.999 73.3917C172.839 72.9517 172.615 72.6277 172.327 72.4197C172.039 72.2037 171.699 72.0957 171.307 72.0957C170.931 72.0957 170.595 72.2037 170.299 72.4197C170.011 72.6277 169.783 72.9517 169.615 73.3917C169.455 73.8237 169.375 74.3797 169.375 75.0597C169.375 75.7317 169.455 76.2877 169.615 76.7277C169.783 77.1677 170.011 77.4957 170.299 77.7117C170.595 77.9197 170.931 78.0237 171.307 78.0237Z" fill="#014631"/>
<path d="M177.209 79.2597V71.4597L177.893 72.1677H175.433V70.8597H178.769V79.2597H177.209Z" fill="#014631"/>
<path d="M181.839 79.2597L185.307 71.4837L185.715 72.1797H180.951L181.695 71.4237V73.6077H180.243V70.8597H186.771V71.9037L183.507 79.2597H181.839Z" fill="#014631"/>
<path fill-rule="evenodd" clip-rule="evenodd" d="M147.36 7.19629C67.897 7.93786 3.70947 72.5838 3.70947 152.222C3.70947 232.32 68.6424 297.253 148.741 297.253C228.84 297.253 293.773 232.32 293.773 152.222H290.773C290.773 230.664 227.183 294.253 148.741 294.253C70.2993 294.253 6.70947 230.664 6.70947 152.222C6.70947 74.2407 69.5539 10.9379 147.36 10.1964V7.19629ZM147.36 22.3907C76.2887 23.1319 18.9037 80.9751 18.9037 152.221C18.9037 223.929 77.0341 282.059 148.742 282.059C220.449 282.059 278.58 223.929 278.58 152.221H275.58C275.58 222.272 218.792 279.059 148.742 279.059C78.691 279.059 21.9037 222.272 21.9037 152.221C21.9037 82.632 77.9456 26.1319 147.36 25.3908V22.3907ZM147.36 38.9769C85.3812 40.0758 35.479 90.3563 35.479 152.221C35.479 214.775 86.4977 265.484 149.433 265.484C212.367 265.484 263.386 214.775 263.386 152.221H260.386C260.386 213.101 210.728 262.484 149.433 262.484C88.1373 262.484 38.479 213.101 38.479 152.221C38.479 92.0298 87.0217 43.0758 147.36 41.9774V38.9769ZM147.36 54.2129C95.1786 56.0448 53.435 99.2237 53.435 152.221C53.435 206.383 97.0329 250.291 150.813 250.291C204.594 250.291 248.192 206.383 248.192 152.221H245.192C245.192 204.747 202.917 247.291 150.813 247.291C98.7097 247.291 56.435 204.747 56.435 152.221C56.435 100.862 96.8542 59.0455 147.36 57.2148V54.2129ZM147.36 70.8005C104.335 72.6254 70.0103 108.381 70.0103 152.221C70.0103 197.229 106.187 233.715 150.814 233.715C195.44 233.715 231.617 197.229 231.617 152.221H228.617C228.617 195.597 193.759 230.715 150.814 230.715C107.868 230.715 73.0103 195.597 73.0103 152.221C73.0103 110.015 106.015 75.6263 147.36 73.8034V70.8005Z" fill="#BABABA" fill-opacity="0.59"/>
<path fill-rule="evenodd" clip-rule="evenodd" d="M146.598 71.6533C146.715 71.6533 146.832 71.6536 146.948 71.6542V74.6542C146.832 74.6536 146.715 74.6533 146.598 74.6533C108.411 74.6533 76.4865 107.039 72.374 149.241H69.3618C73.4924 105.631 106.496 71.6533 146.598 71.6533Z" fill="#52AE32"/>
<path d="M76.2905 149.26C76.2905 152.021 74.2758 154.26 71.7905 154.26C69.3052 154.26 67.2905 152.021 67.2905 149.26C67.2905 146.498 69.3052 144.26 71.7905 144.26C74.2758 144.26 76.2905 146.498 76.2905 149.26Z" fill="#52AE32"/>
<path d="M154.291 263.76C154.291 266.245 152.052 268.26 149.291 268.26C146.529 268.26 144.291 266.245 144.291 263.76C144.291 261.274 146.529 259.26 149.291 259.26C152.052 259.26 154.291 261.274 154.291 263.76Z" fill="#52AE32"/>
<path d="M245.291 242.26C245.291 245.021 243.052 247.26 240.291 247.26C237.529 247.26 235.291 245.021 235.291 242.26C235.291 239.498 237.529 237.26 240.291 237.26C243.052 237.26 245.291 239.498 245.291 242.26Z" fill="#52AE32"/>
<path d="M296.291 154.26C296.291 157.021 294.052 159.26 291.291 159.26C288.529 159.26 286.291 157.021 286.291 154.26C286.291 151.498 288.529 149.26 291.291 149.26C294.052 149.26 296.291 151.498 296.291 154.26Z" fill="#52AE32"/>
<path d="M71.2905 198.26C71.2905 201.021 69.2758 203.26 66.7905 203.26C64.3052 203.26 62.2905 201.021 62.2905 198.26C62.2905 195.498 64.3052 193.26 66.7905 193.26C69.2758 193.26 71.2905 195.498 71.2905 198.26Z" fill="#52AE32"/>
<path fill-rule="evenodd" clip-rule="evenodd" d="M52.6489 151.805C52.6489 98.4037 95.5588 55.0951 148.549 54.9424V57.9424C97.2355 58.0952 55.6489 100.041 55.6489 151.805C55.6489 168.754 60.1072 184.651 67.9055 198.372H64.4721C56.9355 184.554 52.6489 168.684 52.6489 151.805Z" fill="#52AE32"/>
<path fill-rule="evenodd" clip-rule="evenodd" d="M35.938 152.669C35.938 90.8042 85.8402 40.5237 147.819 39.4248V42.4253C87.4807 43.5237 38.938 92.4778 38.938 152.669C38.938 213.121 87.9009 262.238 148.601 262.925V265.925C86.2607 265.238 35.938 214.795 35.938 152.669Z" fill="#52AE32"/>
<path fill-rule="evenodd" clip-rule="evenodd" d="M147.271 22.7139C76.3905 23.6737 19.2271 81.4311 19.2271 152.54C19.2271 224.247 77.3575 282.378 149.065 282.378C184.56 282.378 216.729 268.134 240.167 245.051H235.838C213.151 266.339 182.631 279.378 149.065 279.378C79.0143 279.378 22.2271 222.59 22.2271 152.54C22.2271 83.0879 78.0474 26.6738 147.271 25.7141V22.7139Z" fill="#52AE32"/>
<path fill-rule="evenodd" clip-rule="evenodd" d="M149.335 7.19748C149.137 7.19669 148.939 7.19629 148.741 7.19629C68.6424 7.19629 3.70947 72.1292 3.70947 152.228C3.70947 232.327 68.6424 297.26 148.741 297.26C228.642 297.26 293.452 232.647 293.772 152.822H290.772C290.452 230.991 226.985 294.26 148.741 294.26C70.2993 294.26 6.70947 230.67 6.70947 152.228C6.70947 73.7861 70.2993 10.1963 148.741 10.1963C148.939 10.1963 149.137 10.1967 149.335 10.1975V7.19748Z" fill="#52AE32"/>
</svg>
