<svg width="1122" height="406" viewBox="0 0 1122 406" fill="none" xmlns="http://www.w3.org/2000/svg"><path fill-rule="evenodd" clip-rule="evenodd" d="M870.643 7.95279C858.769 7.95301 849.143 17.5789 849.143 29.4529L849.144 110.924C849.144 126.664 836.384 139.424 820.644 139.424H591.144C579.27 139.424 569.644 149.05 569.644 160.924L569.646 240.919C569.646 256.659 556.886 269.419 541.146 269.419L313.647 269.42C301.773 269.421 292.147 279.046 292.147 290.92V376.448C292.147 392.188 279.387 404.948 263.647 404.948H0.978274L0.978271 397.948H263.647C275.521 397.948 285.147 388.322 285.147 376.448V290.92C285.147 275.18 297.907 262.421 313.647 262.42L541.146 262.419C553.02 262.419 562.646 252.793 562.646 240.919L562.644 160.924C562.644 145.184 575.404 132.424 591.144 132.424H820.644C832.518 132.424 842.144 122.798 842.144 110.924L842.143 29.453C842.143 13.713 854.903 0.953057 870.643 0.952785L1120.98 0.948303V7.94832L870.643 7.95279Z" fill="#52AE32"/></svg>