<svg width="1132" height="386" viewBox="0 0 1132 386" fill="none" xmlns="http://www.w3.org/2000/svg"><path fill-rule="evenodd" clip-rule="evenodd" d="M1042.37 137.635C967.925 198.259 834.684 243.262 599.317 184.216C365.603 125.585 217.609 176.301 128.102 241.195C83.2833 273.69 53.0059 309.829 33.9404 337.83C24.4088 351.829 17.6849 363.786 13.352 372.223C11.1857 376.441 9.61775 379.779 8.59582 382.05C8.0849 383.185 7.71055 384.054 7.46623 384.634C7.34406 384.923 7.25442 385.141 7.19649 385.282C7.16753 385.353 7.14648 385.405 7.13326 385.438L7.11931 385.473L7.1167 385.48L7.09421 385.471C6.99871 385.433 6.4972 385.234 3.86253 384.191C0.608066 382.903 0.609444 382.9 0.611271 382.895L0.617407 382.88L0.638533 382.827L0.68222 382.719L0.716311 382.635C0.7841 382.469 0.883887 382.228 1.01644 381.913C1.28159 381.285 1.67798 380.365 2.2122 379.178C3.28061 376.803 4.90064 373.357 7.12513 369.025C11.5737 360.363 18.4422 348.154 28.1543 333.89C47.5762 305.366 78.3914 268.591 123.993 235.528C215.328 169.308 365.487 118.339 601.02 177.426C834.902 236.099 965.682 191.058 1037.95 132.208C1074.16 102.721 1095.88 69.609 1108.55 43.8794C1114.89 31.0154 1118.96 20.0063 1121.43 12.2356C1122.67 8.35092 1123.51 5.27766 1124.04 3.18918C1124.31 2.145 1124.49 1.34722 1124.61 0.817554C1124.67 0.552727 1124.71 0.354941 1124.74 0.226902C1124.76 0.162897 1124.76 0.116338 1124.77 0.0875395L1124.78 0.0577238L1124.78 0.0529215C1124.78 0.0533077 1124.78 0.0548553 1128.21 0.732753C1131.64 1.41065 1131.64 1.41445 1131.64 1.41941L1131.63 1.48636C1131.62 1.52958 1131.61 1.59072 1131.59 1.66941C1131.56 1.82675 1131.51 2.05431 1131.44 2.34937C1131.31 2.93947 1131.11 3.79958 1130.83 4.90787C1130.27 7.12433 1129.39 10.3343 1128.1 14.3628C1125.53 22.4187 1121.34 33.756 1114.83 46.9721C1101.82 73.4026 1079.51 107.385 1042.37 137.635Z" fill="#52AE32"/></svg>