<svg width="0" height="0" class="hidden">
  <symbol xmlns="http://www.w3.org/2000/svg" viewBox="0 0 28 28" id="phone">
    <path d="M4.48329 1.60672L1.08008 9.54821C1.00136 9.73227 0.979533 9.93569 1.01742 10.1323C1.0553 10.3288 1.15116 10.5096 1.29265 10.6512L17.3481 26.7066C17.4897 26.8481 17.6705 26.944 17.867 26.9819C18.0636 27.0198 18.267 26.9979 18.4511 26.9192L26.3926 23.516C26.5432 23.4515 26.6757 23.3511 26.7786 23.2236C26.8814 23.096 26.9514 22.9452 26.9825 22.7843C27.0136 22.6235 27.0047 22.4574 26.9568 22.3007C26.9088 22.1441 26.8232 22.0015 26.7074 21.8856L22.3557 17.5358C22.2067 17.3873 22.0148 17.2894 21.8072 17.2559C21.5995 17.2224 21.3866 17.2551 21.1985 17.3493L17.1195 19.3888L8.61246 10.8798L10.65 6.80078C10.7442 6.61271 10.7769 6.39978 10.7434 6.19212C10.7099 5.98446 10.612 5.79258 10.4635 5.64364L6.11169 1.29187C5.99575 1.17652 5.85335 1.09128 5.6969 1.04358C5.54046 0.995888 5.37472 0.987185 5.21414 1.01823C5.05357 1.04928 4.90302 1.11914 4.77563 1.22171C4.64824 1.32428 4.54788 1.45646 4.48329 1.60672Z"></path>
  </symbol>
  <symbol xmlns="http://www.w3.org/2000/svg" viewBox="0 0 28 28" id="pin-mark">
    <path d="M14.0001 0C8.89314 0 4.73834 4.15479 4.73834 9.26166C4.73834 11.3185 6.0518 14.6719 8.75355 19.5136C10.6647 22.938 12.5443 25.7933 12.6233 25.9131L14.0001 28L15.3768 25.9132C15.4558 25.7933 17.3356 22.938 19.2465 19.5136C21.9483 14.6719 23.2617 11.3186 23.2617 9.26172C23.2617 4.15479 19.1069 0 14.0001 0ZM14.0001 14C11.3487 14 9.19919 11.8506 9.19919 9.19913C9.19919 6.54767 11.3487 4.39826 14.0001 4.39826C16.6515 4.39826 18.8009 6.54767 18.8009 9.19913C18.8009 11.8506 16.6514 14 14.0001 14Z"></path>
  </symbol>
  <symbol xmlns="http://www.w3.org/2000/svg" viewBox="0 0 28 28" id="play-btn">
    <path d="M4 1.5L24 14L4 26.5V1.5Z"></path>
  </symbol>
  <symbol xmlns="http://www.w3.org/2000/svg" viewBox="0 0 36 36" id="arrow-type-1">
    <path d="M35.2387 19.0563C35.822 18.4729 35.822 17.5271 35.2387 16.9437L25.7324 7.43751C25.1491 6.85416 24.2033 6.85416 23.6199 7.43751C23.0366 8.02087 23.0366 8.96666 23.6199 9.55001L32.0699 18L23.6199 26.45C23.0366 27.0334 23.0366 27.9791 23.6199 28.5625C24.2033 29.1458 25.1491 29.1458 25.7324 28.5625L35.2387 19.0563ZM0.323845 19.4938H34.1824V16.5062H0.323845V19.4938Z"></path>
  </symbol>
  <symbol xmlns="http://www.w3.org/2000/svg" viewBox="0 0 28 28" id="email">
    <path d="M14 14.7724L1.01625 4.25H26.9848L14 14.7724ZM8.12292 12.7986L1 7.0255V20.5683L8.12292 12.7986ZM19.8771 12.7986L27 20.5683V7.0255L19.8771 12.7986ZM18.1903 14.1647L14 17.5609L9.80967 14.1647L1.02383 23.75H26.9762L18.1903 14.1647Z"></path>
  </symbol>
  <symbol xmlns="http://www.w3.org/2000/svg" viewBox="0 0 28 28" id="btn-toggle">
    <path fill-rule="evenodd" clip-rule="evenodd" d="M0 4C0 3.44772 0.447715 3 1 3H27C27.5523 3 28 3.44772 28 4C28 4.55228 27.5523 5 27 5H1C0.447715 5 0 4.55228 0 4ZM0 14C0 13.4477 0.447715 13 1 13H27C27.5523 13 28 13.4477 28 14C28 14.5523 27.5523 15 27 15H1C0.447715 15 0 14.5523 0 14ZM0 24C0 23.4477 0.447715 23 1 23H27C27.5523 23 28 23.4477 28 24C28 24.5523 27.5523 25 27 25H1C0.447715 25 0 24.5523 0 24Z"></path>
  </symbol>
  <symbol xmlns="http://www.w3.org/2000/svg" viewBox="0 0 28 28" id="close">
    <path fill-rule="evenodd" clip-rule="evenodd" d="M14.0167 15.9035L21.6987 23.5854C21.9548 23.8328 22.2978 23.9697 22.6538 23.9666C23.0099 23.9635 23.3505 23.8207 23.6023 23.5689C23.854 23.3171 23.9969 22.9765 24 22.6205C24.003 22.2644 23.8662 21.9214 23.6188 21.6653L15.9368 13.9833L23.6188 6.30135C23.8662 6.04523 24.003 5.70221 24 5.34616C23.9969 4.99011 23.854 4.64951 23.6023 4.39774C23.3505 4.14596 23.0099 4.00315 22.6538 4.00005C22.2978 3.99696 21.9548 4.13383 21.6987 4.38119L14.0167 12.0632L6.33472 4.38119C6.07745 4.13995 5.73642 4.00825 5.38378 4.01398C5.03115 4.01971 4.69457 4.1624 4.44527 4.41188C4.19597 4.66135 4.05351 4.99803 4.04804 5.35067C4.04256 5.70331 4.1745 6.04425 4.41593 6.30135L12.0965 13.9833L4.41457 21.6653C4.28487 21.7906 4.18142 21.9404 4.11025 22.1061C4.03908 22.2717 4.00162 22.4499 4.00005 22.6302C3.99848 22.8106 4.03284 22.9894 4.10112 23.1563C4.1694 23.3231 4.27023 23.4748 4.39774 23.6023C4.52524 23.7298 4.67686 23.8306 4.84375 23.8989C5.01063 23.9672 5.18945 24.0015 5.36976 24C5.55007 23.9984 5.72826 23.9609 5.89393 23.8898C6.05961 23.8186 6.20945 23.7151 6.33472 23.5854L14.0167 15.9035Z"></path>
  </symbol>
</svg>