<svg width="28" height="28" viewBox="0 0 28 28" xmlns="http://www.w3.org/2000/svg"><path d="M4.48329 1.60672L1.08008 9.54821C1.00136 9.73227 0.979533 9.93569 1.01742 10.1323C1.0553 10.3288 1.15116 10.5096 1.29265 10.6512L17.3481 26.7066C17.4897 26.8481 17.6705 26.944 17.867 26.9819C18.0636 27.0198 18.267 26.9979 18.4511 26.9192L26.3926 23.516C26.5432 23.4515 26.6757 23.3511 26.7786 23.2236C26.8814 23.096 26.9514 22.9452 26.9825 22.7843C27.0136 22.6235 27.0047 22.4574 26.9568 22.3007C26.9088 22.1441 26.8232 22.0015 26.7074 21.8856L22.3557 17.5358C22.2067 17.3873 22.0148 17.2894 21.8072 17.2559C21.5995 17.2224 21.3866 17.2551 21.1985 17.3493L17.1195 19.3888L8.61246 10.8798L10.65 6.80078C10.7442 6.61271 10.7769 6.39978 10.7434 6.19212C10.7099 5.98446 10.612 5.79258 10.4635 5.64364L6.11169 1.29187C5.99575 1.17652 5.85335 1.09128 5.6969 1.04358C5.54046 0.995888 5.37472 0.987185 5.21414 1.01823C5.05357 1.04928 4.90302 1.11914 4.77563 1.22171C4.64824 1.32428 4.54788 1.45646 4.48329 1.60672Z"/></svg>