<svg width="28" height="28" viewBox="0 0 28 28" xmlns="http://www.w3.org/2000/svg"><path d="M14.0001 0C8.89314 0 4.73834 4.15479 4.73834 9.26166C4.73834 11.3185 6.0518 14.6719 8.75355 19.5136C10.6647 22.938 12.5443 25.7933 12.6233 25.9131L14.0001 28L15.3768 25.9132C15.4558 25.7933 17.3356 22.938 19.2465 19.5136C21.9483 14.6719 23.2617 11.3186 23.2617 9.26172C23.2617 4.15479 19.1069 0 14.0001 0ZM14.0001 14C11.3487 14 9.19919 11.8506 9.19919 9.19913C9.19919 6.54767 11.3487 4.39826 14.0001 4.39826C16.6515 4.39826 18.8009 6.54767 18.8009 9.19913C18.8009 11.8506 16.6514 14 14.0001 14Z"/></svg>